<?xml version="1.0" standalone="no"?>
<!DOCTYPE svg PUBLIC "-//W3C//DTD SVG 20010904//EN"
 "http://www.w3.org/TR/2001/REC-SVG-20010904/DTD/svg10.dtd">
<svg version="1.0" xmlns="http://www.w3.org/2000/svg"
 width="233.000000pt" height="248.000000pt" viewBox="0 0 233.000000 248.000000"
 preserveAspectRatio="xMidYMid meet">

<g transform="translate(0.000000,248.000000) scale(0.100000,-0.100000)"
fill="#000000" stroke="none">
<path d="M160 1240 c0 -820 3 -1240 10 -1240 7 0 10 420 10 1240 0 820 -3
1240 -10 1240 -7 0 -10 -420 -10 -1240z"/>
<path d="M300 1240 l0 -1240 880 0 880 0 0 1240 0 1240 -880 0 -880 0 0 -1240z
m736 798 c15 -18 38 -57 52 -87 23 -50 24 -62 19 -155 -4 -68 -14 -127 -31
-179 -56 -170 -21 -324 84 -367 22 -9 34 -9 56 3 70 36 104 104 104 204 0 69
-3 83 -40 213 -30 104 -30 218 -1 285 20 46 75 115 92 115 12 0 96 -92 137
-150 76 -109 120 -249 107 -344 -7 -55 -37 -133 -69 -182 l-21 -31 0 101 c0
98 -2 105 -38 178 -20 42 -44 79 -53 82 -13 5 -15 2 -10 -16 41 -143 45 -291
11 -359 -40 -78 -100 -119 -200 -137 -104 -18 -225 22 -278 92 -47 61 -59 182
-32 323 17 90 18 93 8 93 -15 0 -62 -86 -78 -145 -14 -45 -16 -80 -12 -144 l6
-86 -25 42 c-13 23 -35 71 -49 107 -61 161 8 370 178 538 21 21 42 38 47 38 4
0 21 -15 36 -32z m-448 -1275 c24 -21 35 -53 23 -71 -7 -11 -15 -11 -47 3 -26
11 -51 14 -81 9 -35 -5 -43 -3 -43 10 0 9 6 13 14 10 8 -3 17 0 21 5 3 6 11 8
17 5 6 -4 8 -2 4 4 -7 12 31 42 55 42 9 0 26 -8 37 -17z m670 -125 c3 -24 -1
-27 -30 -30 l-33 -3 -3 -132 -3 -133 -29 0 -30 0 0 130 c0 97 -3 130 -12 131
-7 1 -24 2 -38 2 -20 2 -26 8 -28 34 l-3 31 103 -1 103 -2 3 -27z m276 3 c70
-66 24 -168 -78 -172 -12 0 8 -14 49 -33 64 -30 71 -36 73 -64 1 -18 -2 -32
-6 -32 -5 0 -48 18 -96 40 -108 50 -115 50 -113 3 2 -34 -1 -38 -25 -41 -28
-3 -28 -3 -28 57 0 33 4 71 10 86 13 34 64 55 135 55 51 0 55 2 55 24 0 32
-41 46 -131 46 -70 0 -81 7 -71 43 4 17 14 18 103 15 87 -3 100 -6 123 -27z
m275 4 c20 -17 37 -48 52 -93 12 -37 34 -100 50 -139 l27 -73 -32 0 c-31 0
-32 1 -70 108 -22 59 -43 118 -48 131 -14 39 -31 11 -74 -118 -39 -120 -39
-121 -70 -121 l-32 0 38 113 c51 150 66 183 92 201 29 21 31 20 67 -9z m-1249
-95 c0 -97 2 -111 20 -128 17 -15 29 -17 66 -12 25 4 50 13 55 21 5 8 9 62 9
122 l0 107 30 0 30 0 0 -114 c0 -101 -2 -117 -22 -146 -45 -66 -148 -73 -215
-16 -27 24 -28 27 -31 150 l-4 126 31 0 31 0 0 -110z m327 -4 c2 -134 5 -139
103 -144 70 -4 70 -4 70 -33 0 -29 0 -29 -65 -29 -75 0 -125 20 -149 60 -12
22 -16 54 -16 145 l0 116 28 -3 27 -3 2 -109z m913 -111 c20 -25 8 -50 -25
-50 -24 0 -31 5 -33 24 -6 37 34 55 58 26z"/>
<path d="M2195 1240 c0 -685 1 -965 2 -623 2 343 2 903 0 1246 -1 342 -2 62
-2 -623z"/>
</g>
</svg>
